<svg width="16" height="14" viewBox="0 0 16 14" fill="none" xmlns="http://www.w3.org/2000/svg">
<path d="M14.3336 0.150026L0.512706 5.53557C-0.0434705 5.78637 -0.231584 6.28861 0.378278 6.56118L3.92392 7.69979L12.4969 2.34598C12.9649 2.00988 13.4442 2.0995 13.0318 2.46923L5.66881 9.20584L5.43752 12.0568C5.65175 12.4969 6.044 12.499 6.29421 12.2802L8.33129 10.3325L11.8201 12.9724C12.6304 13.4571 13.0713 13.1443 13.2457 12.2558L15.534 1.30652C15.7716 0.212878 15.3665 -0.268992 14.3336 0.150026Z" fill="#B8D000"/>
<path d="M14.3336 0.150026L0.512706 5.53557C-0.0434705 5.78637 -0.231584 6.28861 0.378278 6.56118L3.92392 7.69979L12.4969 2.34598C12.9649 2.00988 13.4442 2.0995 13.0318 2.46923L5.66881 9.20584L5.43752 12.0568C5.65175 12.4969 6.044 12.499 6.29421 12.2802L8.33129 10.3325L11.8201 12.9724C12.6304 13.4571 13.0713 13.1443 13.2457 12.2558L15.534 1.30652C15.7716 0.212878 15.3665 -0.268992 14.3336 0.150026Z" fill="black" fill-opacity="0.2"/>
</svg>
