<svg width="19" height="12" viewBox="0 0 19 12" fill="none" xmlns="http://www.w3.org/2000/svg">
<path d="M18.0027 11.1423H15.9498C15.1731 11.1423 14.9391 10.5132 13.5468 9.12002C12.33 7.94732 11.8161 7.80152 11.5083 7.80152C11.0826 7.80152 10.9665 7.91852 10.9665 8.50442V10.3512C10.9665 10.8507 10.8045 11.1432 9.4995 11.1432C8.23346 11.0582 7.00574 10.6736 5.91747 10.0211C4.8292 9.36857 3.91151 8.46686 3.24 7.39022C1.64555 5.40574 0.536137 3.07659 0 0.588021C0 0.280221 0.117 0.00122113 0.7038 0.00122113H2.7558C3.2832 0.00122113 3.4731 0.236121 3.6801 0.778821C4.6764 3.71102 6.3765 6.26162 7.0668 6.26162C7.3314 6.26162 7.4466 6.14462 7.4466 5.48492V2.46452C7.3593 1.08662 6.6276 0.970521 6.6276 0.471921C6.63686 0.340378 6.69703 0.217625 6.79534 0.129735C6.89365 0.0418451 7.02235 -0.004257 7.1541 0.00122113H10.3797C10.8207 0.00122113 10.9665 0.220821 10.9665 0.748221V4.82522C10.9665 5.26532 11.1555 5.41112 11.2887 5.41112C11.5533 5.41112 11.7567 5.26532 12.2418 4.78112C13.2816 3.51301 14.1311 2.10017 14.7636 0.587121C14.8283 0.405459 14.9507 0.249958 15.1121 0.144337C15.2734 0.0387149 15.4649 -0.0112297 15.6573 0.00212106H17.7102C18.3258 0.00212106 18.4563 0.309921 18.3258 0.749121C17.5791 2.4217 16.6553 4.00937 15.57 5.48492C15.3486 5.82242 15.2604 5.99792 15.57 6.39392C15.7734 6.70172 16.4934 7.30292 16.9767 7.87442C17.6805 8.57642 18.2646 9.38822 18.7065 10.2774C18.8829 10.8498 18.5886 11.1423 18.0027 11.1423Z" fill="#B8D000"/>
<path d="M18.0027 11.1423H15.9498C15.1731 11.1423 14.9391 10.5132 13.5468 9.12002C12.33 7.94732 11.8161 7.80152 11.5083 7.80152C11.0826 7.80152 10.9665 7.91852 10.9665 8.50442V10.3512C10.9665 10.8507 10.8045 11.1432 9.4995 11.1432C8.23346 11.0582 7.00574 10.6736 5.91747 10.0211C4.8292 9.36857 3.91151 8.46686 3.24 7.39022C1.64555 5.40574 0.536137 3.07659 0 0.588021C0 0.280221 0.117 0.00122113 0.7038 0.00122113H2.7558C3.2832 0.00122113 3.4731 0.236121 3.6801 0.778821C4.6764 3.71102 6.3765 6.26162 7.0668 6.26162C7.3314 6.26162 7.4466 6.14462 7.4466 5.48492V2.46452C7.3593 1.08662 6.6276 0.970521 6.6276 0.471921C6.63686 0.340378 6.69703 0.217625 6.79534 0.129735C6.89365 0.0418451 7.02235 -0.004257 7.1541 0.00122113H10.3797C10.8207 0.00122113 10.9665 0.220821 10.9665 0.748221V4.82522C10.9665 5.26532 11.1555 5.41112 11.2887 5.41112C11.5533 5.41112 11.7567 5.26532 12.2418 4.78112C13.2816 3.51301 14.1311 2.10017 14.7636 0.587121C14.8283 0.405459 14.9507 0.249958 15.1121 0.144337C15.2734 0.0387149 15.4649 -0.0112297 15.6573 0.00212106H17.7102C18.3258 0.00212106 18.4563 0.309921 18.3258 0.749121C17.5791 2.4217 16.6553 4.00937 15.57 5.48492C15.3486 5.82242 15.2604 5.99792 15.57 6.39392C15.7734 6.70172 16.4934 7.30292 16.9767 7.87442C17.6805 8.57642 18.2646 9.38822 18.7065 10.2774C18.8829 10.8498 18.5886 11.1423 18.0027 11.1423Z" fill="black" fill-opacity="0.2"/>
</svg>
